<svg width="75" height="75" viewBox="0 0 90 126" fill="none" xmlns="http://www.w3.org/2000/svg">
<path d="M70.2337 4.85603H62.8497L70.5287 13.189V17.156H54.7127V12.511H62.3907L54.7127 4.17803V0.207031H70.2337V4.85603ZM51.5767 4.85603H44.1927L51.8717 13.189V17.156H36.0547V12.511H43.7337L36.0547 4.17803V0.207031H51.5767V4.85603ZM33.1027 5.04603H25.1347V12.317H33.1027V17.156H19.4707V0.207031H33.1027V5.04603Z" fill="#EBEBEB"/>
<path d="M8.61263 115.706L0.515625 24.8931H89.4826L81.3786 115.691L44.9446 125.793L8.61263 115.706Z" fill="#B89D55"/>
<path d="M45.001 118.072L74.44 109.91L81.366 32.3191H45.001V118.072Z" fill="#DCC99F"/>
<path d="M45 65.22H59.738L60.757 53.815H45V42.677H72.929L72.662 45.665L69.925 76.357H45V65.22Z" fill="white"/>
<path d="M45.0666 94.146L45.0176 94.16L32.6136 90.81L31.8196 81.927H20.6406L22.2016 99.415L45.0156 105.748L45.0676 105.733L45.0666 94.146Z" fill="#EBEBEB"/>
<path d="M58.7923 75.886L57.4503 90.802L45.0283 94.155V105.743L67.8613 99.415L68.0293 97.533L69.9673 75.886H58.7923Z" fill="white"/>
<path d="M45.0387 42.677V53.814H18.1357L17.9117 51.311L17.4047 45.665L17.1377 42.677H45.0387ZM44.9997 65.221V76.359H32.7527L32.5297 73.856L32.0217 68.209L31.7547 65.221H44.9997Z" fill="#EBEBEB"/>
</svg>
