<svg width="75" height="75" viewBox="0 0 88 130" fill="none" xmlns="http://www.w3.org/2000/svg">
<path d="M21.934 130C27.7512 130 33.3302 127.695 37.4437 123.592C41.5571 119.489 43.868 113.924 43.868 108.122V86.2437H21.934C16.1167 86.2437 10.5377 88.5487 6.42432 92.6516C2.3109 96.7545 0 102.319 0 108.122C0 113.924 2.3109 119.489 6.42432 123.592C10.5377 127.695 16.1167 130 21.934 130Z" fill="#DCC99F"/>
<path d="M0 65.0001C0 59.1977 2.3109 53.6329 6.42432 49.53C10.5377 45.4271 16.1167 43.1221 21.934 43.1221H43.868V86.8782H21.934C16.1167 86.8782 10.5377 84.5732 6.42432 80.4702C2.3109 76.3673 0 70.8025 0 65.0001Z" fill="white"/>
<path d="M0.635742 21.561C0.63574 15.8456 2.91172 10.364 6.96345 6.32102C11.0152 2.27803 16.5111 0.00446516 22.2434 0L43.8679 0V43.122H22.2603C16.5251 43.122 11.0248 40.8504 6.96942 36.8069C2.91404 32.7634 0.635742 27.2793 0.635742 21.561Z" fill="#DCC99F"/>
<path d="M43.8682 0H65.4843C71.2172 0 76.7154 2.2716 80.7692 6.31506C84.823 10.3585 87.1004 15.8426 87.1004 21.561C87.1004 27.2793 84.823 32.7634 80.7692 36.8069C76.7154 40.8504 71.2172 43.122 65.4843 43.122H43.8682V0Z" fill="white"/>
<path d="M87.1004 65.0001C87.1004 70.8025 84.823 76.3673 80.7692 80.4702C76.7153 84.5732 71.2172 86.8782 65.4843 86.8782C59.7513 86.8782 54.2532 84.5732 50.1994 80.4702C46.1456 76.3673 43.8682 70.8025 43.8682 65.0001C43.8682 59.1977 46.1456 53.6329 50.1994 49.53C54.2532 45.4271 59.7513 43.1221 65.4843 43.1221C71.2172 43.1221 76.7153 45.4271 80.7692 49.53C84.823 53.6329 87.1004 59.1977 87.1004 65.0001Z" fill="#DCC99F"/>
</svg>
