<svg width="75" height="75" viewBox="0 0 93 130" fill="none" xmlns="http://www.w3.org/2000/svg">
<path d="M8.38174 119.559L0 25.5486H92.1002L83.7101 119.544L45.9938 130L8.38174 119.559Z" fill="#B89D55"/>
<path d="M46.0508 122.008L76.5264 113.559L83.6972 33.2363H46.0508V122.008Z" fill="#DCC99F"/>
<path d="M46.0501 68.1033H30.7925L29.7399 56.2951H46.0501V44.7651H17.1387L17.4138 47.8592L20.2483 79.6323H46.0501V68.1033ZM46.0501 98.0465L45.9991 98.06L33.1591 94.5919L32.3379 85.3973H20.7632L22.3784 103.501L45.997 110.058L46.0501 110.042V98.0465Z" fill="#EBEBEB"/>
<path d="M8.57031 0H14.4291V5.79H19.7897V0H25.6496V17.5305H19.7897V11.6602H14.4301V17.5305H8.57031V0ZM33.3539 5.81397H28.1955V0H44.3743V5.81397H39.2138V17.5305H33.3539V5.81397ZM46.9421 0H53.051L56.8099 6.15995L60.5646 0H66.6767V17.5305H60.8398V8.84132L56.8099 15.0742H56.7078L52.6748 8.84132V17.5305H46.941V0H46.9421ZM69.5935 0H75.4544V11.7363H83.6944V17.5315H69.5935V0Z" fill="#E3E3E3"/>
<path d="M46.0107 68.1033V79.6323H60.2085L58.8705 94.5856L46.0107 98.0569V110.052L69.648 103.501L69.821 101.552L72.5305 71.1984L72.8119 68.1033H69.7043H46.0107ZM46.0107 44.7651V56.2951H73.8613L74.0916 53.7034L74.6179 47.8592L74.894 44.7651H46.0107Z" fill="white"/>
</svg>
