<svg width="75" height="75" viewBox="0 0 131 131" fill="none" xmlns="http://www.w3.org/2000/svg">
<path d="M0.408203 0.407959H130.408V130.409H0.408203V0.407959Z" fill="#DCC99F"/>
<path d="M119.768 99.4035C118.816 93.4728 114.949 88.4913 103.493 83.8462C99.5139 82.0174 95.0776 80.7079 93.7556 77.6922C93.2862 75.9372 93.2239 74.9486 93.5209 73.8862C94.3735 70.4385 98.4889 69.3637 101.751 70.3523C103.852 71.0564 105.84 72.6754 107.04 75.258C112.65 71.6255 112.638 71.6493 116.555 69.1529C115.121 66.9295 114.356 65.9035 113.417 64.9522C110.043 61.1836 105.446 59.2427 98.0933 59.3912L94.2634 59.8866C90.5935 60.8139 87.0959 62.7403 85.0449 65.323C78.8909 72.3057 80.6459 84.5264 88.1343 89.5557C95.5116 95.0928 106.349 96.3525 107.733 101.53C109.08 107.869 103.075 109.921 97.1057 109.192C92.7067 108.277 90.2601 106.041 87.6151 101.976C82.7468 104.793 82.7468 104.793 77.7413 107.672C78.9283 110.267 80.1755 111.441 82.1652 113.69C91.5821 123.242 115.147 122.772 119.374 108.315C119.545 107.818 120.683 104.508 119.768 99.4035ZM71.0795 60.1566H58.9201L58.8702 91.5932C58.8702 98.2789 59.216 104.408 58.1288 106.287C56.3499 109.981 51.7401 109.523 49.6393 108.807C47.501 107.756 46.4138 106.262 45.1541 104.149C44.8083 103.543 44.5487 103.073 44.4614 103.037L34.5752 109.091C36.2191 112.465 38.6408 115.394 41.7427 117.296C46.3764 120.077 52.6041 120.93 59.1174 119.435C63.3564 118.2 67.0139 115.642 68.9289 111.749C71.6974 106.645 71.1034 100.467 71.0785 93.6338C71.1408 82.4858 71.0795 71.3399 71.0795 60.1566Z" fill="#F5F4F3"/>
</svg>
