<svg width="130" height="130" viewBox="0 0 130 130" fill="none" xmlns="http://www.w3.org/2000/svg">
<path d="M65 130C100.899 130 130 100.899 130 65C130 29.1015 100.899 0 65 0C29.1015 0 0 29.1015 0 65C0 100.899 29.1015 130 65 130Z" fill="url(#paint0_linear_303_19)"/>
<path d="M48.5822 38.7385H38.625V91.4263H48.5822V38.7385Z" fill="white"/>
<path d="M91.3126 38.5076H81.5859V86.5642H91.3126V38.5076Z" fill="url(#paint1_linear_303_19)"/>
<path d="M107.1 111.423L98.4932 114.704L38.625 38.7385H50.206L107.1 111.423Z" fill="url(#paint2_linear_303_19)"/>
<defs>
<linearGradient id="paint0_linear_303_19" x1="65" y1="130" x2="65" y2="0" gradientUnits="userSpaceOnUse">
<stop stop-color="#B89D55"/>
<stop offset="0.465" stop-color="#DCC99F"/>
<stop offset="1" stop-color="#B89D55"/>
</linearGradient>
<linearGradient id="paint1_linear_303_19" x1="86.4509" y1="94.7131" x2="86.4509" y2="46.6564" gradientUnits="userSpaceOnUse">
<stop offset="0.377" stop-color="white" stop-opacity="0"/>
<stop offset="0.666" stop-color="white" stop-opacity="0.3"/>
<stop offset="0.988" stop-color="white"/>
</linearGradient>
<linearGradient id="paint2_linear_303_19" x1="58.7502" y1="56.5778" x2="106.705" y2="119.443" gradientUnits="userSpaceOnUse">
<stop offset="0.296" stop-color="white"/>
<stop offset="0.521" stop-color="white" stop-opacity="0.5"/>
<stop offset="0.838" stop-color="white" stop-opacity="0"/>
</linearGradient>
</defs>
</svg>
