<svg width="75" height="75" viewBox="0 0 130 41" fill="none" xmlns="http://www.w3.org/2000/svg">
<path d="M119.584 39.9887C119.27 39.9887 118.957 39.8985 118.682 39.7227L115.808 37.8607C115.378 37.5983 115.587 37.5045 115.729 37.451C116.302 37.2325 116.418 37.1815 117.029 36.8038C117.093 36.7646 117.176 36.7789 117.242 36.8216L119.45 38.2573C119.53 38.306 119.644 38.306 119.716 38.2573L128.325 32.8174C128.406 32.7675 128.457 32.6666 128.457 32.5621V21.6846C128.457 21.5777 128.406 21.4791 128.324 21.4245L119.719 15.9893C119.638 15.9395 119.533 15.9395 119.453 15.9893L110.849 21.4257C110.766 21.4791 110.713 21.5813 110.713 21.6846V32.5621C110.713 32.6666 110.766 32.7651 110.849 32.8138L113.207 34.3065C114.487 35.0059 115.271 34.1818 115.271 33.353V22.612C115.271 22.4612 115.382 22.3413 115.52 22.3413H116.612C116.748 22.3413 116.861 22.4612 116.861 22.612V33.353C116.861 35.2221 115.931 36.2944 114.312 36.2944C113.814 36.2944 113.423 36.2944 112.329 35.7054L110.072 34.2828C109.514 33.9289 109.17 33.2686 109.17 32.5633V21.6858C109.17 20.9792 109.514 20.3201 110.072 19.9686L118.681 14.5216C119.225 14.1855 119.948 14.1855 120.489 14.5216L129.097 19.9686C129.654 20.3213 130 20.9804 130 21.6858V32.5633C130 33.2698 129.654 33.9265 129.097 34.2828L120.489 39.7239C120.215 39.8985 119.904 39.9887 119.584 39.9887ZM122.245 32.4944C118.476 32.4944 117.687 30.6003 117.687 29.0126C117.687 28.863 117.799 28.7407 117.937 28.7407H119.049C119.174 28.7407 119.277 28.8381 119.297 28.9711C119.464 30.212 119.966 30.8378 122.245 30.8378C124.057 30.8378 124.829 30.389 124.829 29.3345C124.829 28.7265 124.61 28.2764 121.792 27.9736C119.437 27.7183 117.98 27.1494 117.98 25.0844C117.98 23.1832 119.444 22.0479 121.897 22.0479C124.656 22.0479 126.02 23.0965 126.192 25.3456C126.199 25.4216 126.174 25.4965 126.127 25.5546C126.08 25.6081 126.015 25.6413 125.945 25.6413H124.827C124.711 25.6413 124.609 25.5523 124.585 25.4288C124.316 24.1225 123.665 23.7057 121.896 23.7057C119.917 23.7057 119.687 24.4621 119.687 25.0262C119.687 25.7114 119.958 25.9109 122.632 26.298C125.277 26.6816 126.534 27.2231 126.534 29.2596C126.535 31.3176 124.971 32.4944 122.245 32.4944Z" fill="#DCC99F"/>
<path d="M101.858 25.3601C102.198 25.1428 102.407 24.7461 102.407 24.3151V21.5197C102.407 21.0898 102.199 20.6932 101.858 20.4759L92.7869 14.7094C92.4452 14.4921 92.0244 14.4909 91.6817 14.707L82.5539 20.4771C82.2133 20.6932 82.0029 21.091 82.0029 21.5221V33.0598C82.0029 33.4933 82.2155 33.8946 82.5604 34.1096L91.6307 39.768C91.9648 39.9782 92.3748 39.9794 92.7121 39.7751L98.1978 36.4359C98.3725 36.329 98.4809 36.1295 98.482 35.9134C98.4831 35.6949 98.3768 35.493 98.2044 35.3849L89.0201 29.6137C88.8477 29.5056 88.7425 29.3061 88.7425 29.0912V25.4741C88.7425 25.2579 88.8477 25.0596 89.018 24.9528L91.878 23.1478C92.0472 23.0397 92.2576 23.0397 92.4279 23.1478L95.2879 24.9528C95.4593 25.0608 95.5645 25.2591 95.5645 25.4741V28.3193C95.5645 28.5366 95.6697 28.7361 95.84 28.843C96.0113 28.9511 96.2217 28.9511 96.3931 28.8418L101.858 25.3601Z" fill="#F5F5F5"/>
<path d="M92.1 24.8186C92.1661 24.7782 92.2464 24.7782 92.3115 24.8186L94.063 25.9265C94.1281 25.9681 94.1682 26.0453 94.1682 26.1272V28.3419C94.1682 28.4251 94.1281 28.5011 94.063 28.5426L92.3115 29.6494C92.2464 29.6909 92.165 29.6909 92.1 29.6494L90.3495 28.5426C90.2833 28.5011 90.2432 28.4251 90.2432 28.3419V26.1272C90.2432 26.0453 90.2833 25.9681 90.3495 25.9265L92.1 24.8186Z" fill="#DCC99F"/>
<path d="M68.3457 29.426C68.3457 29.5329 68.2937 29.6326 68.208 29.6872L65.0735 31.6656C64.9879 31.7202 64.8827 31.7202 64.7981 31.6656L61.6636 29.6872C61.578 29.6326 61.5259 29.5329 61.5259 29.426V25.4621C61.5259 25.3552 61.579 25.2543 61.6636 25.1997L64.7981 23.2189C64.8837 23.1631 64.9889 23.1631 65.0746 23.2189L68.2101 25.1997C68.2947 25.2543 68.3468 25.3552 68.3468 25.4621L68.3457 29.426ZM69.1928 0.0757428C69.0225 -0.0275696 68.8143 -0.025194 68.6451 0.0828685C68.477 0.192118 68.3728 0.389243 68.3728 0.602993V15.9396C68.3728 16.0892 68.2991 16.2293 68.1809 16.3053C68.0616 16.3801 67.9141 16.3801 67.7947 16.3053L65.5085 14.8625C65.1679 14.6476 64.7482 14.6476 64.4076 14.8625L55.2776 20.6314C54.936 20.8475 54.7256 21.2465 54.7256 21.6776V33.2189C54.7256 33.6499 54.936 34.0477 55.2766 34.2651L64.4065 40.0375C64.7471 40.2536 65.1679 40.2536 65.5095 40.0375L74.6417 34.2651C74.9823 34.0477 75.1927 33.6499 75.1927 33.2189V4.4493C75.1927 4.0123 74.9757 3.60855 74.6276 3.3948L69.1928 0.0757428Z" fill="#F5F5F5"/>
<path d="M37.0615 14.6452C37.402 14.4291 37.8229 14.4291 38.1634 14.6452L47.2934 20.4129C47.634 20.6291 47.8444 21.0281 47.8444 21.4591V33.004C47.8444 33.4351 47.634 33.8341 47.2934 34.0502L38.1645 39.8226C37.8239 40.0376 37.4031 40.0376 37.0615 39.8226L27.9348 34.0502C27.5942 33.8341 27.3838 33.4351 27.3838 33.004V21.4579C27.3838 21.0281 27.5942 20.6291 27.9348 20.4129L37.0615 14.6452Z" fill="#DCC99F"/>
<path d="M20.4584 21.3628C20.4584 20.9282 20.2502 20.5292 19.9074 20.3143L10.7807 14.5632C10.6245 14.4635 10.4521 14.4124 10.2775 14.4053H10.1831C10.0096 14.4124 9.83604 14.4635 9.67986 14.5632L0.552051 20.3143C0.212578 20.5292 0 20.9282 0 21.3628L0.0195225 36.8478C0.0195225 37.064 0.122558 37.2646 0.295006 37.3691C0.4642 37.4808 0.673523 37.4808 0.842717 37.3691L6.26561 33.9681C6.60834 33.7449 6.81766 33.3518 6.81766 32.9208V25.6865C6.81766 25.2543 7.0259 24.8565 7.36754 24.6403L9.67769 23.1845C9.84906 23.074 10.0378 23.0218 10.2287 23.0218C10.4174 23.0218 10.6104 23.074 10.7785 23.1845L13.0865 24.6403C13.4282 24.8565 13.6386 25.2543 13.6386 25.6865V32.9208C13.6386 33.3518 13.8501 33.7473 14.1906 33.9681L19.6135 37.3691C19.7838 37.4808 19.9964 37.4808 20.1645 37.3691C20.3326 37.2635 20.4378 37.0628 20.4378 36.8478L20.4584 21.3628Z" fill="#F5F5F5"/>
</svg>
