<svg width="75" height="75" viewBox="0 0 130 117" fill="none" xmlns="http://www.w3.org/2000/svg">
<path d="M65.0001 69.8802C71.5376 69.8802 76.8372 64.5805 76.8372 58.0431C76.8372 51.5057 71.5376 46.2061 65.0001 46.2061C58.4627 46.2061 53.1631 51.5057 53.1631 58.0431C53.1631 64.5805 58.4627 69.8802 65.0001 69.8802Z" fill="#DCC99F"/>
<path d="M109.96 38.5224C107.676 37.6917 105.288 36.861 102.796 36.1342C103.419 33.6422 103.938 31.1502 104.353 28.762C106.534 15.0559 104.145 5.39936 97.5 1.66134C95.5272 0.519169 93.3466 0 90.8546 0C83.5863 0 74.345 5.39936 65 14.4329C55.655 5.39936 46.4137 0 39.1454 0C36.6534 0 34.4728 0.519169 32.5 1.66134C25.8546 5.50319 23.4665 15.1597 25.647 28.762C26.0623 31.1502 26.5815 33.6422 27.2045 36.1342C24.7125 36.861 22.3243 37.5879 20.0399 38.5224C7.0607 43.5064 0 50.3594 0 58.0431C0 65.7268 7.16454 72.5799 20.0399 77.5639C22.3243 78.3946 24.7125 79.2252 27.2045 79.9521C26.5815 82.4441 26.0623 84.9361 25.647 87.3243C23.4665 101.03 25.8546 110.687 32.5 114.425C34.4728 115.567 36.6534 116.086 39.1454 116.086C46.5176 116.086 55.7588 110.687 65 101.653C74.345 110.687 83.5863 116.086 90.8546 116.086C93.3466 116.086 95.5272 115.567 97.5 114.425C104.145 110.583 106.534 100.927 104.353 87.3243C103.938 84.9361 103.419 82.4441 102.796 79.9521C105.288 79.2252 107.676 78.4984 109.96 77.5639C122.939 72.5799 130 65.7268 130 58.0431C130 50.3594 122.939 43.5064 109.96 38.5224ZM94.5927 6.85303C98.8498 9.34505 100.304 17.0288 98.5383 27.9313C98.2268 30.1118 97.7077 32.3962 97.0847 34.7843C91.6853 33.5383 85.9744 32.7077 79.9521 32.1885C76.4217 27.2045 72.7875 22.7396 69.1534 18.6901C76.8371 11.1102 84.6246 5.91853 90.9585 5.91853C92.3083 5.91853 93.5543 6.23003 94.5927 6.85303ZM82.9633 68.4265C81.0943 71.7492 78.9137 75.0719 76.6294 78.3946C72.7875 78.7061 68.9457 78.8099 65 78.8099C60.9505 78.8099 57.1086 78.7061 53.3706 78.3946C51.0863 75.0719 49.0096 71.7492 47.1406 68.4265C45.1677 65 43.2987 61.4697 41.6374 58.0431C43.2987 54.6166 45.1677 51.0863 47.1406 47.6597C49.0096 44.3371 51.1901 41.0144 53.4744 37.6917C57.3163 37.3802 61.1581 37.2764 65.1038 37.2764C69.1534 37.2764 72.9952 37.3802 76.7332 37.6917C79.0176 41.0144 81.0943 44.3371 82.9633 47.6597C84.9361 51.0863 86.8051 54.6166 88.4665 58.0431C86.7013 61.4697 84.9361 64.8962 82.9633 68.4265ZM91.5815 65C93.139 68.6342 94.385 72.1645 95.5272 75.6949C91.9968 76.5256 88.2588 77.1486 84.3131 77.6677C85.5591 75.6949 86.9089 73.6182 88.0511 71.4377C89.2971 69.2572 90.4393 67.0767 91.5815 65ZM65 93.139C62.508 90.4393 60.1198 87.532 57.8355 84.5208C60.2236 84.6246 62.6118 84.7284 65 84.7284C67.3882 84.7284 69.7764 84.6246 72.1645 84.5208C69.8802 87.532 67.492 90.4393 65 93.139ZM45.6869 77.5639C41.7412 77.0447 38.0032 76.4217 34.4728 75.5911C35.615 72.1645 36.861 68.5304 38.4185 64.8962C39.5607 66.9728 40.7029 69.1534 41.9489 71.23C43.1949 73.5144 44.4409 75.4872 45.6869 77.5639ZM38.4185 51.0863C36.861 47.4521 35.615 43.9217 34.4728 40.3914C38.0032 39.5607 41.7412 38.9377 45.6869 38.4185C44.4409 40.3914 43.0911 42.4681 41.9489 44.6486C40.7029 46.8291 39.5607 49.0096 38.4185 51.0863ZM65 22.9473C67.492 25.647 69.8802 28.5543 72.1645 31.5655C69.7764 31.4617 67.3882 31.3578 65 31.3578C62.6118 31.3578 60.2236 31.4617 57.8355 31.5655C60.1198 28.5543 62.508 25.647 65 22.9473ZM88.0511 44.7524L84.3131 38.5224C88.2588 39.0415 91.9968 39.6645 95.5272 40.4952C94.385 43.9217 93.139 47.5559 91.5815 51.1901C90.4393 49.0096 89.2971 46.8291 88.0511 44.7524ZM31.4617 27.9313C29.6965 17.0288 31.1502 9.34505 35.4073 6.85303C36.4457 6.23003 37.6917 5.91853 39.0415 5.91853C45.2716 5.91853 53.0591 11.0064 60.8466 18.6901C57.2125 22.6358 53.5783 27.2045 50.0479 32.1885C44.0256 32.7077 38.3147 33.6422 32.9153 34.7843C32.2923 32.3962 31.877 30.1118 31.4617 27.9313ZM5.8147 58.0431C5.8147 53.1629 11.7332 47.9712 22.1166 44.1294C24.1933 43.2987 26.4776 42.5719 28.762 41.9489C30.4233 47.1406 32.5 52.6438 34.992 58.147C32.5 63.6502 30.3195 69.0495 28.762 74.2412C14.4329 70.0879 5.8147 63.8578 5.8147 58.0431ZM35.4073 109.233C31.1502 106.741 29.6965 99.0575 31.4617 88.155C31.7732 85.9744 32.2923 83.6901 32.9153 81.3019C38.3147 82.5479 44.0256 83.3786 50.0479 83.8978C53.5783 88.8818 57.2125 93.3466 60.8466 97.3962C53.1629 104.976 45.3754 110.168 39.0415 110.168C37.6917 110.168 36.4457 109.856 35.4073 109.233ZM98.5383 88.155C100.304 99.0575 98.8498 106.741 94.5927 109.233C93.5543 109.856 92.3083 110.168 90.9585 110.168C84.7284 110.168 76.9409 105.08 69.1534 97.3962C72.7875 93.4505 76.4217 88.8818 79.9521 83.8978C85.9744 83.3786 91.6853 82.4441 97.0847 81.3019C97.7077 83.6901 98.123 85.9744 98.5383 88.155ZM107.883 71.9569C105.807 72.7875 103.522 73.5144 101.238 74.1374C99.5767 68.9457 97.5 63.4425 95.008 57.9393C97.5 52.4361 99.6805 47.0367 101.238 41.8451C115.567 45.9984 124.185 52.2284 124.185 58.0431C124.185 62.9233 118.163 68.115 107.883 71.9569Z" fill="#DCC99F"/>
</svg>
