<svg width="130" height="98" viewBox="0 0 130 98" fill="none" xmlns="http://www.w3.org/2000/svg">
<path d="M111.927 55.8945C107.845 55.8998 103.818 56.8309 100.15 58.6172C99.0012 56.7162 98.1143 54.6697 97.5128 52.5327C97.1672 50.8577 97.0874 49.1389 97.2761 47.4391C97.6729 45.5687 98.1876 43.7252 98.8173 41.9195C98.7941 41.6833 98.5341 40.5674 95.9205 40.5303C93.3068 40.4933 91.0553 41.0258 90.8139 41.7158C90.3599 42.976 89.9954 44.2664 89.7229 45.5776C87.5598 50.9005 84.8971 56.0076 81.7705 60.8306C80.0188 57.9662 79.2982 54.5918 79.7278 51.2639C80.1247 49.3936 80.6394 47.55 81.2691 45.7443C81.2459 45.5082 80.9859 44.3922 78.3723 44.3552C75.7586 44.3181 73.5071 44.8506 73.2656 45.5406C73.0242 46.2305 72.7179 47.8559 72.1747 49.4025C71.6315 50.9491 65.29 65.0815 63.6281 68.7257C62.7739 70.5779 62.0357 72.0875 61.5158 73.1062C61.4911 73.1724 61.46 73.236 61.4229 73.2961C60.9587 74.1712 60.7126 74.6482 60.7126 74.6482V74.6713C60.3552 75.3104 59.9745 75.9031 59.7842 75.9031C59.4522 74.5801 59.4682 73.1941 59.8306 71.8791C60.7591 66.9754 63.0338 59.3535 63.0106 59.0896C63.0106 58.946 63.4377 57.6217 61.539 56.9364C61.0986 56.7273 60.6041 56.6596 60.1236 56.7426C59.643 56.8255 59.2001 57.055 58.8557 57.3994C58.6886 57.3994 58.5725 57.8023 58.5725 57.8023C58.5725 57.8023 60.6384 49.2311 54.6311 49.2311C52.2918 49.7005 50.0702 50.6317 48.097 51.9701C46.1238 53.3085 44.4388 55.0269 43.1412 57.0243C41.5257 57.8995 38.0857 59.7703 34.4043 61.7845C33.0116 62.5671 31.5538 63.3497 30.2029 64.0998C30.1101 64.0072 30.0126 63.8868 29.9197 63.7942C22.608 56.0241 9.16827 50.5416 9.74857 40.146C9.96212 36.3582 11.2666 26.4118 35.5556 14.3307C55.5457 4.5047 71.4551 7.22746 74.2081 13.2657C78.1494 21.8878 65.6846 37.8956 45.0307 40.2155C42.7457 40.6779 40.3858 40.6221 38.1254 40.0522C35.865 39.4823 33.7619 38.4129 31.9717 36.9231C30.8807 35.7377 30.7136 35.6683 30.3097 35.9044C29.6458 36.261 30.0729 37.326 30.3097 37.9419C31.0976 39.3641 32.1633 40.6145 33.4439 41.619C34.7245 42.6235 36.1939 43.3618 37.7653 43.7902C45.8906 45.5416 54.3621 44.7042 61.9847 41.3963C74.5191 36.5666 84.2681 23.138 81.4084 11.8904C78.5347 0.476128 59.5428 -3.28851 41.5675 3.09238C30.3085 6.87125 19.9053 12.8235 10.9509 20.6097C1.04875 29.8477 -0.515738 37.8724 0.12491 41.2388C2.4461 53.1764 18.9312 60.9418 25.528 66.7068C25.1938 66.8967 24.8874 67.0634 24.6274 67.2023C21.3267 68.8369 8.74581 75.3983 5.59364 82.3349C2.03293 90.2068 6.16465 95.8329 8.89437 96.5923C13.0076 97.5744 17.3255 97.2509 21.2455 95.667C25.1654 94.0831 28.4917 91.3178 30.76 87.7573C32.6915 84.804 33.8788 81.4288 34.2207 77.9191C34.5626 74.4095 34.049 70.8695 32.7237 67.6005C32.7013 67.5477 32.6699 67.4991 32.6309 67.457L35.2167 65.9428C36.9019 64.9472 38.5638 64.0257 39.9891 63.2663C39.0226 66.0467 38.4553 68.9495 38.3039 71.8884C37.9757 76.3928 39.3578 80.8557 42.1756 84.3909C42.6044 84.759 43.1021 85.0386 43.6401 85.2135C44.178 85.3884 44.7453 85.455 45.3092 85.4096C48.0947 85.4096 49.3713 83.0943 50.7687 80.3438C52.4771 76.982 54.0183 73.0738 54.0183 73.0738C54.0183 73.0738 52.0964 83.6361 57.3191 83.6361C59.2178 83.6361 61.1397 81.1726 61.9986 79.9316V79.9548C61.9986 79.9548 62.045 79.8853 62.1425 79.7186L62.4489 79.2232V79.1769C63.2102 77.8525 64.9186 74.8427 67.458 69.8463C70.7356 63.4052 73.8924 55.3527 73.8924 55.3527C74.1968 57.1224 74.6171 58.8703 75.1505 60.5852C75.9151 62.664 76.8193 64.6891 77.857 66.6466C77.0956 67.7116 76.6221 68.3043 76.6221 68.3043L76.6453 68.3275C76.0279 69.1332 75.364 70.0084 74.6259 70.8604C72.4297 73.2687 70.3921 75.8162 68.5258 78.4869C68.2485 78.9355 68.1532 79.4727 68.2593 79.989C68.3654 80.5052 68.6649 80.9617 69.0968 81.2652C70.0741 81.7725 71.188 81.9557 72.2768 81.7885C73.9177 81.6961 75.5311 81.3282 77.0492 80.7003C78.5162 80.1854 79.9003 79.46 81.1577 78.5471C82.454 77.6513 83.4974 76.4379 84.1877 75.0237C84.878 73.6094 85.1918 72.0417 85.0991 70.4714C84.9531 68.4934 84.4465 66.5586 83.6042 64.762C83.841 64.4286 84.0685 64.0998 84.2913 63.7664C86.9307 59.8369 89.3095 55.7393 91.4127 51.5001C91.7172 53.2698 92.1375 55.0177 92.6708 56.7326C93.3015 58.529 94.0778 60.2713 94.992 61.942C91.9556 64.2721 89.564 67.3349 88.0424 70.8419C86.5475 75.1529 87.7081 77.0931 89.8993 77.5423C91.0983 77.6247 92.2972 77.3798 93.3672 76.8338C94.9404 76.3181 96.4224 75.5587 97.7589 74.5834C99.1681 73.7538 100.348 72.5878 101.194 71.1902C102.039 69.7927 102.522 68.2074 102.601 66.5772C102.495 64.9498 102.127 63.3502 101.51 61.8401C105.517 60.2787 109.861 59.7809 114.119 60.3954C125.418 61.7197 127.651 68.7535 127.224 71.7171C127.024 72.7677 126.6 73.7633 125.982 74.6371C125.364 75.5109 124.565 76.2425 123.64 76.7829C122.856 77.2783 122.596 77.445 122.665 77.8016C122.758 78.3248 123.129 78.2971 123.803 78.2044C125.506 77.6765 127.008 76.646 128.112 75.2489C129.216 73.8519 129.87 72.1539 129.986 70.3788C130.344 63.433 123.696 55.8158 111.941 55.8852L111.927 55.8945ZM24.7435 85.1966C20.9924 89.2714 15.7697 90.8088 13.5135 89.5076C11.0902 88.1184 12.0419 82.0987 16.6472 77.7831C19.379 75.3302 22.3316 73.1338 25.4677 71.2216C26.0155 70.8882 26.8233 70.4159 27.7889 69.8324L28.0488 69.6889L28.6199 69.3323C29.4426 72.0819 29.5172 75.0003 28.836 77.7882C28.1548 80.576 26.7423 83.1329 24.7435 85.1966ZM52.0453 66.6744C50.7408 69.8463 48.0111 77.9729 46.3491 77.5191C44.9239 77.1394 44.0279 70.9808 46.0659 64.8963C47.0949 61.9672 48.5938 59.2242 50.504 56.7743C52.5467 54.5007 54.8029 53.7413 55.3461 54.6674C54.8505 58.8112 53.738 62.858 52.0453 66.6744ZM74.5748 77.4265C74.027 77.709 73.5071 77.8896 73.2703 77.7599C73.1032 77.6673 73.5071 77.2969 73.5071 77.2969C73.5071 77.2969 76.3343 74.2639 77.4484 72.8932C78.0891 72.0875 78.8412 71.1429 79.6582 70.0732V70.3788C79.6582 73.9999 76.1439 76.4402 74.5794 77.4358L74.5748 77.4265ZM91.9559 73.472C91.552 73.1896 91.6216 72.2403 92.9772 69.2814C93.9198 67.3811 95.2365 65.6897 96.849 64.3082C97.0961 65.0091 97.2248 65.7462 97.2296 66.4892C97.2479 68.0707 96.741 69.6138 95.7878 70.8778C94.8347 72.1417 93.4889 73.0555 91.9605 73.4767L91.9559 73.472Z" fill="#DCC99F"/>
</svg>
