<svg width="75" height="75" viewBox="0 0 130 78" fill="none" xmlns="http://www.w3.org/2000/svg">
<path d="M65 0C47.6667 0 36.8333 8.66396 32.5 25.9919C39 17.3279 46.5833 14.0806 55.25 16.2446C60.1954 17.4796 63.7298 21.0681 67.6433 25.0385C74.0133 31.5033 81.3881 38.9892 97.5 38.9892C114.833 38.9892 125.667 30.3252 130 12.9946C123.5 21.6585 115.917 24.9085 107.25 22.7446C102.307 21.5096 98.7729 17.921 94.8594 13.9506C88.4867 7.48313 81.1092 0 65 0ZM32.5 38.9892C15.1667 38.9892 4.33333 47.6531 0 64.9838C6.5 56.3198 14.0833 53.0698 22.75 55.2365C27.6927 56.4742 31.2271 60.06 35.1406 64.0277C41.5133 70.4952 48.8908 77.981 65 77.981C82.3333 77.981 93.1667 69.3171 97.5 51.9865C91 60.6504 83.4167 63.9004 74.75 61.7338C69.8046 60.4988 66.2702 56.9102 62.3567 52.9425C55.9867 46.475 48.6119 38.9892 32.5 38.9892Z" fill="#DCC99F"/>
</svg>
