<svg width="130" height="130" viewBox="0 0 130 130" fill="none" xmlns="http://www.w3.org/2000/svg">
<path d="M130 0H0V130H130V0Z" fill="#DCC99F"/>
<path d="M77.6022 57.7776H29.708V69.5643H46.8861V122.778H60.4963V69.5643H77.6022V57.7776Z" fill="white"/>
<path d="M119.867 72.5255C119.867 72.5255 113.414 68.221 106.12 68.221C98.8251 68.221 96.1998 71.6877 96.1998 75.3927C96.1998 84.9549 122.853 83.998 122.853 103.242C122.853 132.885 82.2139 119.737 82.2139 119.737V105.517C82.2139 105.517 89.9851 111.374 99.3053 111.374C108.626 111.374 108.272 105.278 108.272 104.44C108.272 95.5969 81.8564 95.5969 81.8564 75.9921C81.8564 49.3385 120.344 59.8541 120.344 59.8541L119.867 72.5255Z" fill="white"/>
</svg>
